<svg width="176" height="176" viewBox="0 0 176 176" fill="none" xmlns="http://www.w3.org/2000/svg">
<path d="M173.25 88C173.25 135.082 135.082 173.25 88 173.25C40.9176 173.25 2.75 135.082 2.75 88C2.75 40.9176 40.9176 2.75 88 2.75C135.082 2.75 173.25 40.9176 173.25 88ZM78.1392 133.139L141.389 69.8892C143.537 67.7414 143.537 64.2589 141.389 62.1112L133.611 54.3331C131.463 52.185 127.981 52.185 125.833 54.3331L74.25 105.916L50.1672 81.8328C48.0195 79.685 44.5369 79.685 42.3888 81.8328L34.6108 89.6108C32.4631 91.7586 32.4631 95.2411 34.6108 97.3888L70.3608 133.139C72.5089 135.287 75.9911 135.287 78.1392 133.139Z" fill="#D1372D"/>
</svg>
