<svg width="32" height="32" viewBox="0 0 32 32" fill="none" xmlns="http://www.w3.org/2000/svg">
<g clip-path="url(#clip0_11_155)">
<path d="M18.9986 3.89973V4.39973H19.4986H24.3732C25.7118 4.39973 26.798 5.48594 26.798 6.82453V28.273C26.798 29.6116 25.7118 30.6978 24.3732 30.6978H6.82446C5.48587 30.6978 4.39966 29.6116 4.39966 28.273V6.82453C4.39966 5.48594 5.48587 4.39973 6.82446 4.39973H11.6991H12.1991V3.89973C12.1991 2.02493 13.724 0.5 15.5988 0.5C17.4736 0.5 18.9986 2.02493 18.9986 3.89973ZM7.78685 24.3733C7.78685 25.4599 8.6627 26.3357 9.74925 26.3357C10.8358 26.3357 11.7117 25.4599 11.7117 24.3733C11.7117 23.2868 10.8358 22.4109 9.74925 22.4109C8.6627 22.4109 7.78685 23.2868 7.78685 24.3733ZM7.78685 18.5237C7.78685 19.6103 8.6627 20.4861 9.74925 20.4861C10.8358 20.4861 11.7117 19.6103 11.7117 18.5237C11.7117 17.4372 10.8358 16.5613 9.74925 16.5613C8.6627 16.5613 7.78685 17.4372 7.78685 18.5237ZM7.78685 12.6741C7.78685 13.7607 8.6627 14.6365 9.74925 14.6365C10.8358 14.6365 11.7117 13.7607 11.7117 12.6741C11.7117 11.5876 10.8358 10.7117 9.74925 10.7117C8.6627 10.7117 7.78685 11.5876 7.78685 12.6741ZM17.5612 3.89973C17.5612 2.81317 16.6854 1.93733 15.5988 1.93733C14.5123 1.93733 13.6364 2.81317 13.6364 3.89973C13.6364 4.98628 14.5123 5.86213 15.5988 5.86213C16.6854 5.86213 17.5612 4.98628 17.5612 3.89973ZM22.9108 25.8482C23.4551 25.8482 23.8983 25.405 23.8983 24.8608V23.8858C23.8983 23.3416 23.4551 22.8984 22.9108 22.8984H14.1364C13.5922 22.8984 13.149 23.3416 13.149 23.8858V24.8608C13.149 25.405 13.5922 25.8482 14.1364 25.8482H22.9108ZM22.9108 19.9986C23.4551 19.9986 23.8983 19.5554 23.8983 19.0112V18.0362C23.8983 17.492 23.4551 17.0488 22.9108 17.0488H14.1364C13.5922 17.0488 13.149 17.492 13.149 18.0362V19.0112C13.149 19.5554 13.5922 19.9986 14.1364 19.9986H22.9108ZM22.9108 14.1491C23.4551 14.1491 23.8983 13.7058 23.8983 13.1616V12.1867C23.8983 11.6424 23.4551 11.1992 22.9108 11.1992H14.1364C13.5922 11.1992 13.149 11.6424 13.149 12.1867V13.1616C13.149 13.7058 13.5922 14.1491 14.1364 14.1491H22.9108Z" fill="white" stroke="black"/>
</g>
<defs>
<clipPath id="clip0_11_155">
<rect width="31.1978" height="31.1978" fill="white"/>
</clipPath>
</defs>
</svg>
