<svg width="32" height="32" viewBox="0 0 32 32" fill="none" xmlns="http://www.w3.org/2000/svg">
<g clip-path="url(#clip0_11_149)">
<path d="M18.6977 26.8467V26.8452V21.665C18.6977 21.3026 18.5537 20.955 18.2974 20.6987C18.0411 20.4424 17.6935 20.2984 17.3311 20.2984H13.8646C13.5022 20.2984 13.1546 20.4424 12.8983 20.6987C12.642 20.955 12.498 21.3026 12.498 21.665V26.849C12.498 26.9459 12.4597 27.0388 12.3913 27.1075C12.323 27.1762 12.2303 27.215 12.1335 27.2156C12.1334 27.2156 12.1333 27.2156 12.1333 27.2156L6.06626 27.2313C6.06611 27.2313 6.06596 27.2313 6.06581 27.2313C5.96875 27.2311 5.87568 27.1925 5.80703 27.1239C5.73828 27.0551 5.69966 26.9619 5.69966 26.8647V18.2238L15.5008 10.1515C15.529 10.1292 15.564 10.1171 15.6 10.1171C15.636 10.1171 15.671 10.1292 15.6992 10.1515C15.6997 10.1518 15.7001 10.1522 15.7006 10.1525L25.4982 18.218V26.8647C25.4982 26.9619 25.4596 27.0551 25.3908 27.1239C25.3222 27.1925 25.2292 27.2311 25.1322 27.2313C25.132 27.2313 25.1318 27.2313 25.1316 27.2313L19.0657 27.2145H19.0643C19.016 27.2145 18.9683 27.205 18.9237 27.1865L18.732 27.6483L18.9237 27.1865C18.8792 27.168 18.8387 27.1409 18.8046 27.1067C18.7706 27.0725 18.7436 27.032 18.7252 26.9874C18.7069 26.9428 18.6975 26.895 18.6977 26.8467ZM30.6415 15.7392L30.6441 15.7414C30.6594 15.7538 30.6721 15.7692 30.6815 15.7866C30.6909 15.804 30.6967 15.8231 30.6987 15.8427C30.7007 15.8624 30.6987 15.8822 30.693 15.9011C30.6873 15.92 30.6779 15.9376 30.6653 15.9529L29.2851 17.6309C29.285 17.631 29.2849 17.6311 29.2849 17.6311C29.2723 17.6462 29.257 17.6587 29.2397 17.6679C29.2223 17.6771 29.2032 17.6828 29.1836 17.6847C29.164 17.6865 29.1442 17.6845 29.1254 17.6787C29.1066 17.6729 29.0891 17.6635 29.0739 17.6509L29.073 17.6502L16.3322 7.15664L16.3323 7.15662L16.3281 7.1533C16.1219 6.98705 15.8649 6.89638 15.6 6.89638C15.3351 6.89638 15.0781 6.98705 14.8719 7.1533L14.8719 7.15328L14.8678 7.15664L2.12759 17.6502L2.12707 17.6506C2.11187 17.6632 2.09433 17.6726 2.07548 17.6784C2.05662 17.6841 2.03682 17.6861 2.01719 17.6842C1.99756 17.6824 1.9785 17.6766 1.96109 17.6673L1.72608 18.1087L1.96109 17.6673C1.94369 17.6581 1.92828 17.6455 1.91576 17.6302L1.91572 17.6302L0.534571 15.9511L0.533634 15.95C0.521073 15.9348 0.511628 15.9173 0.505836 15.8985C0.500043 15.8797 0.498017 15.8599 0.499874 15.8403C0.501731 15.8207 0.507434 15.8016 0.516657 15.7842L0.0748428 15.5501L0.516658 15.7842C0.525842 15.7669 0.538336 15.7515 0.553433 15.739C0.553498 15.7389 0.553562 15.7389 0.553627 15.7388L14.263 4.44816C14.2631 4.44812 14.2632 4.44808 14.2632 4.44804C14.639 4.13882 15.1106 3.96976 15.5973 3.96976C16.0841 3.96976 16.5557 4.13887 16.9316 4.44816L16.9316 4.44819L21.7808 8.43783L22.5985 9.11056V8.05172V4.11895C22.5985 4.07918 22.6143 4.04104 22.6424 4.01292L22.2892 3.65976L22.6424 4.01291C22.6705 3.98479 22.7087 3.96899 22.7484 3.96899H25.7816C25.8213 3.96899 25.8595 3.98479 25.8876 4.01291L26.2403 3.66016L25.8876 4.01292C25.9157 4.04104 25.9315 4.07918 25.9315 4.11895V11.6211V11.8569L26.1135 12.0069L30.6415 15.7392Z" fill="white" stroke="#D1372D"/>
</g>
<defs>
<clipPath id="clip0_11_149">
<rect width="31.1978" height="31.1978" fill="white"/>
</clipPath>
</defs>
</svg>
