<svg width="32" height="25" viewBox="0 0 32 25" fill="none" xmlns="http://www.w3.org/2000/svg">
<path d="M18.6977 23.8467V23.8452V18.665C18.6977 18.3026 18.5537 17.955 18.2974 17.6987C18.0411 17.4424 17.6935 17.2984 17.3311 17.2984H13.8646C13.5022 17.2984 13.1546 17.4424 12.8983 17.6987C12.642 17.955 12.498 18.3026 12.498 18.665V23.849C12.498 23.9459 12.4597 24.0388 12.3913 24.1075C12.323 24.1762 12.2303 24.215 12.1335 24.2156C12.1334 24.2156 12.1333 24.2156 12.1333 24.2156L6.06626 24.2313C6.06611 24.2313 6.06596 24.2313 6.06581 24.2313C5.96875 24.2311 5.87568 24.1925 5.80703 24.1239C5.73828 24.0551 5.69966 23.9619 5.69966 23.8647V15.2238L15.5008 7.15148C15.529 7.1292 15.564 7.11706 15.6 7.11706C15.636 7.11706 15.671 7.1292 15.6992 7.15148C15.6997 7.15184 15.7001 7.15219 15.7006 7.15255L25.4982 15.218V23.8647C25.4982 23.9619 25.4596 24.0551 25.3908 24.1239C25.3222 24.1925 25.2292 24.2311 25.1322 24.2313C25.132 24.2313 25.1318 24.2313 25.1316 24.2313L19.0657 24.2145H19.0643C19.016 24.2145 18.9683 24.205 18.9237 24.1865L18.732 24.6483L18.9237 24.1865C18.8792 24.168 18.8387 24.1409 18.8046 24.1067C18.7706 24.0725 18.7436 24.032 18.7252 23.9874C18.7069 23.9428 18.6975 23.895 18.6977 23.8467ZM30.6415 12.7392L30.6441 12.7414C30.6594 12.7538 30.6721 12.7692 30.6815 12.7866C30.6909 12.804 30.6967 12.8231 30.6987 12.8427C30.7007 12.8624 30.6987 12.8822 30.693 12.9011C30.6873 12.92 30.6779 12.9376 30.6653 12.9529L29.2851 14.6309C29.285 14.631 29.2849 14.6311 29.2849 14.6311C29.2723 14.6462 29.257 14.6587 29.2397 14.6679C29.2223 14.6771 29.2032 14.6828 29.1836 14.6847C29.164 14.6865 29.1442 14.6845 29.1254 14.6787C29.1066 14.6729 29.0891 14.6635 29.0739 14.6509L29.073 14.6502L16.3322 4.15664L16.3323 4.15662L16.3281 4.1533C16.1219 3.98705 15.8649 3.89638 15.6 3.89638C15.3351 3.89638 15.0781 3.98705 14.8719 4.1533L14.8719 4.15328L14.8678 4.15664L2.12759 14.6502L2.12707 14.6506C2.11187 14.6632 2.09433 14.6726 2.07548 14.6784C2.05662 14.6841 2.03682 14.6861 2.01719 14.6842C1.99756 14.6824 1.9785 14.6766 1.96109 14.6673L1.72608 15.1087L1.96109 14.6673C1.94369 14.6581 1.92828 14.6455 1.91576 14.6302L1.91572 14.6302L0.534571 12.9511L0.533634 12.95C0.521073 12.9348 0.511628 12.9173 0.505836 12.8985C0.500043 12.8797 0.498017 12.8599 0.499874 12.8403C0.501731 12.8207 0.507434 12.8016 0.516657 12.7842L0.0748428 12.5501L0.516658 12.7842C0.525842 12.7669 0.538336 12.7515 0.553433 12.739C0.553498 12.7389 0.553562 12.7389 0.553627 12.7388L14.263 1.44816C14.2631 1.44812 14.2632 1.44808 14.2632 1.44804C14.639 1.13882 15.1106 0.96976 15.5973 0.96976C16.0841 0.96976 16.5557 1.13887 16.9316 1.44816L16.9316 1.44819L21.7808 5.43783L22.5985 6.11056V5.05172V1.11895C22.5985 1.07918 22.6143 1.04104 22.6424 1.01292L22.2892 0.659763L22.6424 1.01291C22.6705 0.984794 22.7087 0.968994 22.7484 0.968994H25.7816C25.8213 0.968994 25.8595 0.984794 25.8876 1.01291L26.2403 0.660163L25.8876 1.01292C25.9157 1.04104 25.9315 1.07918 25.9315 1.11895V8.62105V8.85688L26.1135 9.00688L30.6415 12.7392Z" fill="white" stroke="black"/>
</svg>
